<?xml version="1.0" standalone="no"?>
<!DOCTYPE svg PUBLIC "-//W3C//DTD SVG 20010904//EN"
 "http://www.w3.org/TR/2001/REC-SVG-20010904/DTD/svg10.dtd">
<svg version="1.0" xmlns="http://www.w3.org/2000/svg"
 width="700.000000pt" height="700.000000pt" viewBox="0 0 700.000000 700.000000"
 preserveAspectRatio="xMidYMid meet">
<metadata>
Created by potrace 1.11, written by Peter Selinger 2001-2013
</metadata>
<g transform="translate(0.000000,700.000000) scale(0.100000,-0.100000)"
fill="#000000" stroke="none">
<path d="M3390 6993 c-43 -7 -143 -45 -185 -71 -100 -62 -182 -169 -224 -293
-12 -35 -25 -69 -29 -74 -4 -6 -60 -21 -126 -33 -396 -76 -813 -252 -1176
-495 -88 -59 -221 -157 -240 -177 -3 -3 -36 -32 -75 -65 -517 -439 -903 -1079
-1056 -1750 -149 -650 -101 -1309 141 -1940 l26 -70 -29 -40 c-82 -113 -117
-267 -93 -405 31 -171 163 -327 329 -389 271 -100 564 35 668 308 24 65 29 93
29 171 1 97 -13 156 -57 244 -30 59 -34 64 -104 135 -61 61 -150 110 -236 131
-91 21 -216 14 -289 -16 l-32 -14 -26 68 c-60 157 -131 425 -151 572 -3 25 -8
52 -10 60 -2 8 -7 40 -10 70 -3 30 -8 80 -12 110 -14 116 -6 544 12 635 2 11
7 43 10 70 16 136 105 501 144 590 5 11 24 58 42 105 39 104 160 350 219 445
399 649 975 1111 1679 1344 126 42 397 111 435 111 7 0 29 -33 49 -72 45 -91
105 -160 180 -209 197 -128 465 -107 634 49 59 54 116 134 134 189 15 48 22
52 68 42 20 -4 50 -10 66 -13 60 -10 131 -25 185 -40 30 -8 66 -18 80 -22 46
-12 224 -76 310 -111 249 -102 568 -290 760 -450 127 -105 285 -258 373 -362
40 -46 84 -96 98 -110 49 -49 188 -247 249 -356 130 -229 199 -382 274 -607
51 -152 100 -335 110 -411 5 -34 25 -165 32 -207 16 -101 22 -396 10 -565 -7
-100 -42 -360 -50 -374 -2 -3 -7 -24 -10 -45 -10 -65 -45 -194 -88 -325 -146
-449 -397 -861 -733 -1197 -490 -492 -1021 -788 -1575 -879 -19 -3 -46 -7 -60
-10 -142 -25 -264 -28 -779 -20 -276 4 -305 6 -317 22 -19 26 -17 60 6 83 20
20 30 20 465 18 245 -2 445 0 445 3 0 3 19 11 42 18 61 19 142 104 162 171 20
67 20 103 0 169 -20 69 -86 141 -157 172 -52 22 -56 22 -515 23 -446 1 -464 2
-478 21 -19 26 -18 48 5 76 l19 24 479 1 479 1 53 29 c105 57 159 157 148 276
-9 97 -67 176 -162 220 -50 23 -52 23 -575 25 -288 2 -527 7 -531 11 -3 4 -25
75 -49 157 -62 215 -106 345 -150 441 -57 123 -100 186 -210 304 -163 175
-242 289 -329 471 -59 123 -105 259 -125 374 -3 17 -9 41 -12 55 -4 14 -8 102
-10 195 -2 136 1 192 17 278 106 588 532 1055 1109 1217 96 27 110 30 280 55
83 12 332 5 408 -11 13 -3 43 -7 65 -11 147 -20 400 -126 559 -234 119 -81
306 -266 392 -388 134 -190 234 -431 275 -666 22 -131 26 -378 6 -482 -7 -37
-16 -84 -19 -104 -23 -147 -155 -442 -254 -568 l-19 -24 -59 23 c-81 31 -208
38 -294 16 -225 -57 -383 -244 -397 -470 -26 -420 438 -700 789 -475 237 152
312 457 173 705 l-35 62 53 79 c198 288 307 647 301 988 -2 92 -10 206 -20
260 -102 602 -467 1102 -989 1356 -253 123 -501 177 -795 173 -155 -2 -227
-11 -419 -50 -114 -23 -334 -111 -465 -185 -640 -363 -993 -1108 -860 -1814
22 -117 21 -113 48 -203 81 -270 238 -534 450 -760 158 -168 212 -280 336
-707 46 -160 83 -240 123 -270 31 -22 -10 -21 832 -15 314 2 308 2 328 -13 27
-19 30 -60 7 -85 -20 -22 -22 -22 -481 -22 -310 0 -474 -3 -502 -11 -158 -42
-244 -225 -178 -375 35 -79 107 -142 181 -159 19 -5 238 -9 487 -9 408 -1 454
-3 469 -18 24 -24 21 -68 -6 -88 -20 -15 -64 -17 -459 -16 -329 1 -442 -2
-461 -11 -14 -7 -31 -13 -38 -13 -18 0 -70 -37 -100 -70 -70 -75 -89 -211 -42
-304 35 -68 100 -121 176 -142 54 -14 106 -16 445 -11 211 3 409 8 439 11 148
13 190 18 330 40 192 30 468 113 640 192 77 36 266 131 320 162 52 29 368 231
390 249 436 349 723 699 954 1162 109 217 227 543 261 722 2 11 6 28 9 37 3 9
7 34 10 54 3 21 10 57 15 80 6 24 13 72 17 108 3 36 8 68 10 72 24 40 23 717
-1 790 -2 7 -6 36 -9 63 -8 71 -22 146 -50 284 -14 65 -70 257 -77 266 -5 5
-9 17 -9 27 0 27 -84 237 -150 375 -104 218 -199 372 -354 578 -108 142 -152
193 -300 340 -165 164 -236 224 -411 348 -208 148 -538 325 -750 401 -55 20
-107 40 -116 45 -16 9 -243 76 -289 85 -14 3 -69 14 -123 26 -55 11 -109 20
-121 20 -18 0 -24 10 -39 66 -44 170 -169 301 -344 360 -45 16 -189 26 -243
17z m212 -227 c59 -28 126 -94 155 -150 20 -40 26 -67 27 -121 1 -80 -4 -107
-32 -161 -64 -125 -220 -189 -358 -149 -148 43 -232 164 -222 319 8 123 79
221 192 266 63 25 181 23 238 -4z m1042 -4288 c52 -15 139 -80 166 -123 127
-205 -6 -468 -244 -480 -58 -3 -82 0 -130 20 -73 30 -137 91 -167 159 -33 73
-32 193 0 256 41 81 117 145 201 171 39 12 129 10 174 -3z m-3684 -520 c30
-15 64 -35 75 -45 129 -115 141 -317 27 -444 -24 -27 -59 -57 -76 -66 -162
-84 -353 -21 -436 143 -20 40 -24 63 -24 129 1 67 5 89 28 134 81 158 255 222
406 149z"/>
</g>
</svg>
