<?xml version="1.0" standalone="no"?>
<!DOCTYPE svg PUBLIC "-//W3C//DTD SVG 20010904//EN"
 "http://www.w3.org/TR/2001/REC-SVG-20010904/DTD/svg10.dtd">
<svg version="1.0" xmlns="http://www.w3.org/2000/svg"
 width="700.000000pt" height="700.000000pt" viewBox="0 0 700.000000 700.000000"
 preserveAspectRatio="xMidYMid meet">
<metadata>
Created by potrace 1.14, written by Peter Selinger 2001-2017
</metadata>
<g transform="translate(0.000000,700.000000) scale(0.100000,-0.100000)"
fill="#000000" stroke="none">
<path d="M3371 6989 c-72 -14 -182 -72 -244 -129 -66 -60 -114 -137 -146 -231
-12 -35 -25 -69 -29 -74 -4 -6 -59 -21 -122 -33 -306 -58 -665 -192 -960 -358
-122 -68 -426 -276 -460 -313 -3 -4 -23 -21 -45 -40 -249 -211 -454 -442 -630
-711 -463 -703 -638 -1561 -489 -2390 36 -199 97 -415 174 -615 l26 -70 -29
-40 c-41 -57 -65 -106 -82 -172 -16 -57 -21 -185 -11 -232 41 -184 162 -328
329 -390 270 -100 564 36 668 308 10 27 21 62 24 78 7 38 7 151 0 188 -41 217
-219 392 -430 422 -88 12 -189 3 -250 -22 l-33 -15 -26 68 c-29 76 -101 312
-109 357 -3 17 -12 62 -21 100 -8 39 -17 88 -20 110 -4 22 -8 51 -11 65 -39
203 -39 632 1 895 27 182 102 483 144 580 4 11 18 47 31 80 12 33 26 64 31 70
4 5 8 15 8 23 0 19 137 290 190 377 342 557 816 977 1390 1232 151 67 340 136
435 158 187 45 273 64 286 65 10 0 29 -27 52 -72 45 -91 105 -160 180 -209
239 -155 562 -89 720 148 20 29 41 69 48 90 15 48 22 52 68 42 20 -4 50 -10
66 -12 17 -3 41 -8 55 -11 14 -3 36 -8 50 -10 101 -17 371 -109 538 -183 402
-177 798 -468 1064 -780 40 -47 85 -98 99 -112 48 -48 189 -249 250 -357 128
-226 198 -381 273 -606 51 -152 100 -335 110 -411 5 -34 25 -165 32 -207 16
-101 22 -396 10 -565 -7 -100 -42 -360 -50 -374 -2 -3 -7 -24 -10 -45 -10 -61
-44 -191 -83 -311 -110 -343 -296 -690 -524 -975 -91 -115 -288 -317 -414
-426 -44 -38 -82 -72 -85 -75 -12 -13 -211 -159 -280 -206 -300 -201 -698
-362 -1015 -408 -22 -4 -47 -8 -55 -10 -8 -2 -46 -7 -85 -10 -38 -3 -83 -8
-100 -10 -46 -6 -199 -6 -559 -1 -291 5 -331 7 -347 22 -25 22 -24 59 1 84 19
19 34 19 463 19 l444 -1 56 27 c175 82 220 297 91 435 -26 28 -67 58 -97 71
-52 22 -56 22 -515 23 -446 1 -464 2 -478 21 -19 26 -18 48 5 77 l19 24 464
-1 c274 0 477 3 498 9 89 25 169 108 190 197 33 136 -28 262 -155 321 l-50 23
-523 1 c-288 1 -527 5 -531 10 -5 5 -27 77 -51 159 -89 310 -148 463 -226 582
-37 55 -57 80 -129 158 -78 84 -105 115 -152 175 -148 191 -268 453 -307 675
-3 17 -9 41 -12 55 -4 14 -8 102 -10 195 -2 136 1 192 17 278 106 588 532
1055 1109 1217 96 27 110 30 285 55 85 13 308 7 405 -11 14 -2 43 -7 65 -10
149 -23 384 -121 549 -231 126 -84 309 -263 400 -392 134 -190 234 -431 275
-666 22 -131 26 -378 6 -482 -7 -37 -15 -81 -18 -98 -26 -156 -156 -448 -255
-574 l-19 -24 -59 24 c-86 33 -251 34 -347 0 -234 -80 -386 -345 -337 -587 64
-319 413 -509 705 -384 290 124 405 468 249 747 l-35 64 28 37 c70 91 155 247
208 381 77 196 122 440 119 646 -3 154 -11 227 -44 380 -120 566 -544 1074
-1070 1284 -345 137 -697 161 -1105 76 -122 -26 -326 -106 -460 -181 -318
-178 -557 -434 -720 -769 -165 -340 -216 -696 -149 -1050 22 -117 21 -113 48
-203 80 -267 241 -540 445 -755 162 -170 216 -282 341 -712 46 -160 83 -240
123 -270 31 -22 66 -22 882 -14 241 2 293 -3 296 -29 0 -4 2 -16 4 -28 3 -12
-4 -30 -16 -42 -19 -22 -22 -22 -481 -22 -477 0 -514 -3 -573 -42 -187 -127
-165 -400 39 -489 50 -22 58 -22 513 -23 416 -1 464 -3 479 -18 24 -23 21 -68
-6 -88 -20 -15 -65 -17 -454 -17 -453 0 -490 -3 -551 -46 -81 -57 -120 -131
-119 -232 0 -87 29 -150 93 -206 81 -69 112 -72 552 -65 436 6 457 7 649 32
467 60 879 227 1371 555 64 42 122 83 130 91 8 7 46 38 84 70 91 73 271 250
366 358 328 374 573 831 704 1313 14 53 28 106 30 118 2 11 6 28 9 37 3 9 8
37 11 62 4 24 8 47 10 50 6 10 36 233 43 320 13 169 5 619 -13 672 -2 7 -6 36
-9 63 -8 70 -22 151 -50 282 -3 13 -16 64 -30 115 -124 454 -343 877 -641
1237 -165 200 -435 451 -632 586 -228 157 -539 323 -748 399 -55 20 -109 41
-120 46 -57 27 -349 102 -471 121 l-80 13 -17 64 c-44 168 -170 299 -344 358
-55 19 -197 26 -262 13z m231 -223 c58 -28 121 -88 153 -147 23 -43 29 -66 29
-123 1 -81 -4 -108 -32 -162 -72 -140 -258 -201 -403 -133 -139 65 -210 222
-169 371 24 85 104 167 197 203 51 20 176 14 225 -9z m1057 -4295 c215 -81
270 -362 101 -515 -158 -142 -407 -92 -491 98 -33 73 -32 193 0 256 41 81 117
145 201 171 47 14 139 9 189 -10z m-3699 -513 c87 -42 136 -96 164 -182 38
-112 14 -225 -66 -312 -149 -162 -406 -120 -508 82 -20 40 -24 63 -24 129 1
67 5 89 28 134 81 158 255 222 406 149z"/>
</g>
</svg>
